<svg width="238" height="213" viewBox="0 0 238 213" fill="none" xmlns="http://www.w3.org/2000/svg">
<g clip-path="url(#clip0)">
<path opacity="0.25" d="M166.161 205.677C166.161 206.526 134.772 207.213 96.0558 207.213C57.3395 207.213 25.9502 206.526 25.9502 205.677C25.9502 204.828 57.3395 204.141 96.0558 204.141C134.772 204.141 166.161 204.828 166.161 205.677Z" fill="#606060"/>
<path d="M144.66 67.188C177.473 105.501 184.32 149.925 143.956 187.782C112.141 217.622 57.2311 207.953 24.4105 169.648C-8.40242 131.336 -8.09293 77.343 25.1146 49.0541C58.3221 20.7575 111.839 28.8831 144.66 67.188Z" fill="#440344"/>
<path d="M148.412 180.983C181.618 152.687 182.265 99.0818 149.858 61.2524C117.451 23.4232 64.2605 15.6949 31.0544 43.991C-2.15169 72.287 -2.79927 125.892 29.608 163.721C62.0153 201.551 115.205 209.279 148.412 180.983Z" fill="#81007F"/>
<path d="M139.757 170.879C168.064 146.758 168.615 101.06 140.987 68.8106C113.36 36.5609 68.0161 29.9716 39.7093 54.0928C11.4024 78.2141 10.8515 123.912 38.4789 156.161C66.1062 188.411 111.45 195.001 139.757 170.879Z" fill="white"/>
<path d="M131.791 161.581C155.588 141.302 156.05 102.883 132.822 75.7689C109.595 48.655 71.473 43.1139 47.6755 63.3926C23.8779 83.6713 23.416 122.091 46.6438 149.205C69.8715 176.319 107.993 181.86 131.791 161.581Z" fill="#81007F"/>
<path d="M123.508 151.912C142.62 135.625 142.993 104.771 124.34 82.9966C105.686 61.2224 75.071 56.774 55.9583 73.0606C36.8455 89.3472 36.473 120.202 55.1263 141.976C73.7796 163.75 104.395 168.198 123.508 151.912Z" fill="white"/>
<path d="M115.154 142.162C129.54 129.903 129.82 106.68 115.781 90.2912C101.741 73.9023 78.6971 70.554 64.3114 82.8125C49.9256 95.0711 49.6453 118.294 63.6852 134.683C77.7251 151.072 100.769 154.421 115.154 142.162Z" fill="#81007F"/>
<path d="M106.686 132.276C116.28 124.1 116.467 108.613 107.104 97.6842C97.7414 86.755 82.3742 84.5224 72.7804 92.6976C63.1867 100.873 62.9994 116.36 72.3621 127.289C81.7248 138.218 97.0921 140.451 106.686 132.276Z" fill="white"/>
<path d="M97.2548 106.079C101.309 110.817 101.232 117.523 97.0768 121.065C92.922 124.607 86.2604 123.642 82.2062 118.904C78.152 114.166 78.2294 107.461 82.3842 103.919C86.539 100.377 93.2006 101.341 97.2548 106.079Z" fill="#D20ED8"/>
<path d="M173.713 30.5113C173.713 30.5113 182.626 0 187.222 0C191.817 0 193.713 10.2476 193.713 10.2476L173.713 30.5113Z" fill="#FFA523"/>
<path d="M174.51 31.2983C174.51 31.2983 205.102 22.4089 205.102 17.8252C205.102 13.2416 194.827 11.3511 194.827 11.3511L174.51 31.2983Z" fill="#FFA523"/>
<path d="M194.525 10.7492L89.7268 112.492" stroke="#004A67" stroke-width="2.0972" stroke-miterlimit="10"/>
<path d="M200.622 73.6931C200.622 73.6931 221.644 49.8181 225.814 51.7626C229.977 53.7072 227.346 63.7927 227.346 63.7927L200.622 73.6931Z" fill="#0070C0"/>
<path d="M201.001 74.7425C201.001 74.7425 232.484 79.6117 234.433 75.4602C236.383 71.3087 227.872 65.2589 227.872 65.2589L201.001 74.7425Z" fill="#0070C0"/>
<path d="M227.864 64.5798L89.7268 112.492" stroke="#004A67" stroke-width="2.0972" stroke-miterlimit="10"/>
<path d="M204.491 137.702C204.491 137.702 234.967 128.434 237.482 132.269C239.996 136.105 232.437 143.296 232.437 143.296L204.491 137.702Z" fill="#61CECB"/>
<path d="M204.259 138.798C204.259 138.798 228.46 159.463 232.306 156.955C236.151 154.447 232.112 144.832 232.112 144.832L204.259 138.798Z" fill="#61CECB"/>
<path d="M232.468 144.253L89.7268 112.492" stroke="#004A67" stroke-width="2.0972" stroke-miterlimit="10"/>
<path d="M182.99 183.801C182.99 183.801 214.534 188.276 215.183 192.813C215.833 197.351 205.93 200.669 205.93 200.669L182.99 183.801Z" fill="#A353EA"/>
<path d="M182.316 184.696C182.316 184.696 195.469 213.64 200.019 212.992C204.568 212.344 204.986 201.927 204.986 201.927L182.316 184.696Z" fill="#A353EA"/>
<path d="M205.551 201.549L89.7268 112.492" stroke="#004A67" stroke-width="2.0972" stroke-miterlimit="10"/>
</g>
<defs>
<clipPath id="clip0">
<rect width="238" height="213" fill="white"/>
</clipPath>
</defs>
</svg>
