<svg width="190" height="199" viewBox="0 0 190 199" fill="none" xmlns="http://www.w3.org/2000/svg">
<path d="M88.5128 0C65.5874 0 44.8062 9.15149 29.5364 24.0037L88.5128 85.1516V0Z" fill="#D9A491"/>
<path d="M25.8116 47.1101C9.89583 62.5973 0 84.2544 0 108.258C0 126.602 5.80006 143.58 15.6272 157.48L84.788 108.258L25.8116 47.1101Z" fill="#A928A7"/>
<path d="M189.986 111.916C189.972 108.12 189.698 104.393 189.217 100.722C189.038 99.3275 188.818 97.9472 188.571 96.5806C188.035 93.6268 187.347 90.7143 186.523 87.8709C186.165 86.6424 185.78 85.4415 185.382 84.2268C184.489 81.5904 183.471 79.023 182.344 76.5109C181.85 75.4066 181.341 74.33 180.805 73.2671C179.623 70.9068 178.345 68.6017 176.957 66.3655C176.352 65.3855 175.733 64.4055 175.087 63.4531C173.493 61.0927 171.775 58.8152 169.961 56.6343C169.246 55.7647 168.504 54.9089 167.748 54.0669C166.058 52.1759 164.271 50.3815 162.429 48.6423C161.604 47.8693 160.766 47.124 159.914 46.3786C157.99 44.7084 155.997 43.121 153.921 41.6303C153.001 40.9539 152.066 40.3052 151.104 39.6703C148.932 38.2209 146.706 36.8682 144.41 35.6259C143.38 35.06 142.321 34.5217 141.263 33.9972C138.555 32.6721 135.752 31.485 132.893 30.4359C131.711 30.008 130.529 29.594 129.333 29.2213C126.543 28.3379 123.698 27.6063 120.812 27.0128C119.478 26.7367 118.131 26.502 116.771 26.2812C113.568 25.7843 110.297 25.4806 106.985 25.3426C105.83 25.3012 104.676 25.2598 103.521 25.2598C102.587 25.2598 101.845 26.0189 101.845 26.9576V30.5326V41.299V46.0887V56.8552V61.6449V73.6122V78.4019V89.1683V93.958V104.725V109.514V111.267L95.8521 115.532L79.4965 127.168L42.6895 153.367L33.3984 159.979C33.0273 160.241 32.7799 160.627 32.7112 161.069C32.6425 161.511 32.7387 161.966 32.9998 162.339C33.1098 162.491 33.2197 162.629 33.3297 162.767C34.8278 164.851 36.4221 166.852 38.0714 168.771C38.8136 169.627 39.542 170.469 40.3117 171.297C42.0435 173.161 43.844 174.927 45.7269 176.625C46.5653 177.384 47.4175 178.116 48.2834 178.847C50.4687 180.669 52.7227 182.409 55.0593 183.996C56.0076 184.645 56.9972 185.252 57.973 185.859C60.1996 187.254 62.4949 188.551 64.8314 189.738C65.9034 190.276 66.9618 190.801 68.0475 191.284C70.5627 192.43 73.1329 193.424 75.758 194.307C76.9538 194.721 78.1495 195.108 79.3728 195.466C82.2041 196.308 85.0904 197.012 88.0179 197.564C89.3923 197.813 90.7667 198.006 92.1549 198.199C95.8246 198.696 99.5493 198.972 103.288 198.972C103.37 198.972 103.439 198.986 103.521 198.986C105.074 198.986 106.628 198.945 108.167 198.862C112.345 198.641 116.427 198.117 120.427 197.316C122.543 196.888 124.632 196.377 126.694 195.798C133.003 194.031 139.036 191.588 144.672 188.51C150.417 185.376 155.749 181.58 160.615 177.274C163.35 174.844 165.934 172.263 168.353 169.503C172.641 164.616 176.421 159.261 179.541 153.491C182.606 147.832 185.038 141.772 186.798 135.437C187.375 133.366 187.883 131.268 188.309 129.128C189.107 125.112 189.629 121.012 189.849 116.816C189.931 115.27 189.972 113.71 189.972 112.151C190 112.082 189.986 111.999 189.986 111.916Z" fill="#81007F"/>
</svg>
