<svg width="160" height="209" viewBox="0 0 160 209" fill="none" xmlns="http://www.w3.org/2000/svg">
<g clip-path="url(#clip0)">
<path d="M72.2441 80.1256H65.0149V107.651H72.2441V80.1256Z" fill="#858E37"/>
<path d="M160 0L108.587 51.5264C108.56 51.5533 108.539 51.5743 108.512 51.6012L100.457 59.6741C100.448 59.6801 100.439 59.6861 100.439 59.6861L86.2459 73.9154C86.2399 73.9214 86.231 73.9304 86.225 73.9364L74.9978 85.1877C74.9919 85.1937 74.9919 85.1937 74.9919 85.1937L68.6309 91.5683C62.622 85.5465 58.988 78.2031 57.6543 70.3962C56.1357 61.513 57.5917 52.0257 61.9149 43.1993C71.3161 50.6444 76.4956 60.622 77.2176 70.3962V24.3564C82.8297 19.8475 89.5935 16.0114 97.479 13.2008C119.173 5.45672 134.78 8.50352 160 0Z" fill="#9BAC3A"/>
<path d="M146.827 62.6581C132.411 103.232 91.2016 114.188 68.6309 91.5683L160 0C151.515 25.2773 154.552 40.915 146.827 62.6581Z" fill="#9BAC3A"/>
<path d="M111.654 22.9481C111.654 22.9481 116.583 43.5133 108.512 51.5982L100.442 59.6861C100.442 59.6861 111.923 36.5346 111.654 22.9481Z" fill="#B3D234"/>
<path d="M90.596 34.053C90.596 34.053 97.4583 62.6791 86.2251 73.9334L74.9919 85.1907C74.9919 85.1907 90.972 52.9646 90.596 34.053Z" fill="#B3D234"/>
<path d="M137.101 48.4527C137.101 48.4527 116.58 43.5133 108.512 51.5982L100.442 59.6861C100.442 59.6861 123.547 48.1806 137.101 48.4527Z" fill="#B3D234"/>
<path d="M126.02 69.556C126.02 69.556 97.4582 62.6791 86.2251 73.9364L74.9919 85.1937C74.9919 85.1907 107.149 69.1793 126.02 69.556Z" fill="#B3D234"/>
<path d="M77.2205 24.3564V70.3932C76.4984 60.622 71.316 50.6414 61.9177 43.1963C65.2892 36.3134 70.406 29.8371 77.2205 24.3564Z" fill="#819139"/>
<path d="M46.9584 35.0247C30.6651 29.2092 18.9427 31.4995 0 25.1069V25.1099C6.37291 44.0933 4.09048 55.841 9.89352 72.1723C20.7209 102.649 51.6755 110.878 68.6281 93.8856C85.5987 76.8815 77.3491 45.8335 46.9584 35.0247Z" fill="#B3D234"/>
<path d="M36.3162 42.3472C36.3162 42.3472 32.6136 57.7934 38.6732 63.8661L44.7358 69.9388C44.7358 69.9417 36.1133 52.552 36.3162 42.3472Z" fill="#9BAC3A"/>
<path d="M52.1319 50.6892C52.1319 50.6892 46.9763 72.1902 55.4138 80.6459L63.8484 89.0986C63.8484 89.0986 51.8485 64.8917 52.1319 50.6892Z" fill="#9BAC3A"/>
<path d="M17.1973 61.504C17.1973 61.504 32.6104 57.7934 38.67 63.8661L44.7326 69.9388C44.7356 69.9417 27.3802 61.3007 17.1973 61.504Z" fill="#9BAC3A"/>
<path d="M25.5215 77.3539C25.5215 77.3539 46.9764 72.1872 55.4139 80.6429L63.8484 89.0986C63.8484 89.0986 39.6964 77.0699 25.5215 77.3539Z" fill="#9BAC3A"/>
<path d="M69.5676 101.588V209C66.8108 209 64.582 206.763 64.585 204.01C64.585 203.923 64.591 203.836 64.597 203.759C64.5164 203.747 64.4418 203.735 64.3672 203.729C64.3553 203.815 64.3434 203.893 64.3284 203.98C63.7586 206.68 61.1122 208.399 58.424 207.828C55.7298 207.251 54.0142 204.605 54.5841 201.905C54.602 201.818 54.6289 201.746 54.6468 201.66C54.5781 201.636 54.5035 201.615 54.4349 201.591C54.4021 201.666 54.3782 201.749 54.3365 201.824C53.2176 204.345 50.2758 205.478 47.7666 204.357C45.2515 203.235 44.1207 200.281 45.2396 197.764C45.2783 197.683 45.3201 197.608 45.3589 197.53C45.2962 197.492 45.2276 197.456 45.165 197.417C45.1142 197.492 45.0725 197.566 45.0218 197.641C43.4017 199.872 40.2868 200.362 38.0611 198.744C35.8353 197.121 35.3401 193.999 36.9601 191.769C37.0109 191.7 37.0676 191.631 37.1272 191.562C37.0705 191.518 37.0138 191.464 36.9542 191.413C36.8915 191.476 36.8348 191.538 36.7722 191.595C34.7225 193.44 31.5748 193.276 29.7369 191.231C27.8961 189.179 28.0601 186.022 30.1009 184.18C30.1695 184.117 30.2382 184.067 30.3068 184.016C30.262 183.953 30.2203 183.89 30.1755 183.827C30.1009 183.878 30.0263 183.929 29.9517 183.977C27.5679 185.349 24.5276 184.533 23.1462 182.147C21.7708 179.758 22.5853 176.705 24.9722 175.327C25.0467 175.282 25.1273 175.246 25.1989 175.213C25.1691 175.138 25.1363 175.07 25.1064 175.001C25.0259 175.037 24.9483 175.07 24.8677 175.094C22.2482 175.946 19.4436 174.511 18.5873 171.891C17.737 169.266 19.1691 166.455 21.7887 165.603C21.8692 165.573 21.9528 165.559 22.0333 165.535C22.0154 165.46 22.0005 165.385 21.9826 165.31C21.905 165.322 21.8245 165.34 21.738 165.349C18.999 165.636 16.5525 163.645 16.2601 160.909C15.9737 158.164 17.9608 155.712 20.6937 155.419C20.7862 155.413 20.8638 155.413 20.9503 155.408V155.18C20.8638 155.174 20.7773 155.174 20.6937 155.168C17.9608 154.878 15.9767 152.423 16.2601 149.679C16.5495 146.934 18.999 144.946 21.738 145.236C21.8245 145.242 21.905 145.259 21.9826 145.274C22.0005 145.2 22.0184 145.125 22.0333 145.05C21.9528 145.026 21.8663 145.011 21.7887 144.981C19.1751 144.129 17.743 141.316 18.5933 138.693C19.4436 136.068 22.2511 134.636 24.8677 135.485C24.9483 135.512 25.0288 135.548 25.1064 135.578C25.1363 135.509 25.1631 135.44 25.1989 135.372C25.1243 135.333 25.0467 135.297 24.9722 135.258C22.5853 133.88 21.7708 130.827 23.1462 128.438C24.5276 126.049 27.5738 125.23 29.9517 126.608C30.0323 126.653 30.1009 126.704 30.1755 126.751C30.2203 126.695 30.259 126.632 30.3068 126.569C30.2382 126.518 30.1695 126.467 30.1009 126.405C28.0601 124.563 27.8931 121.408 29.7369 119.354C31.5748 117.306 34.7284 117.142 36.7722 118.989C36.8348 119.046 36.8915 119.109 36.9542 119.166C37.0109 119.121 37.0676 119.067 37.1272 119.016C37.0705 118.954 37.0138 118.885 36.9601 118.816C35.346 116.586 35.8353 113.464 38.0611 111.84C40.2868 110.223 43.4017 110.713 45.0218 112.944C45.0725 113.018 45.1202 113.093 45.165 113.168C45.2276 113.129 45.2962 113.093 45.3589 113.054C45.3201 112.974 45.2813 112.899 45.2455 112.821C44.1207 110.301 45.2515 107.349 47.7696 106.228C50.2848 105.107 53.2266 106.24 54.3454 108.761C54.3812 108.841 54.4081 108.922 54.4379 109C54.5125 108.976 54.5811 108.949 54.6557 108.925C54.6318 108.844 54.605 108.764 54.5871 108.68C54.0172 105.983 55.7328 103.334 58.4269 102.757C61.1122 102.186 63.7616 103.905 64.3314 106.605C64.3493 106.692 64.3613 106.775 64.3702 106.856C64.4508 106.85 64.5224 106.838 64.5999 106.829C64.594 106.748 64.588 106.665 64.588 106.578C64.585 103.824 66.8167 101.588 69.5676 101.588Z" fill="#BD3CBB"/>
<path d="M122.86 160.909C122.574 163.654 120.121 165.642 117.388 165.349C117.305 165.343 117.224 165.328 117.138 165.31C117.126 165.385 117.105 165.46 117.093 165.535C117.174 165.559 117.254 165.573 117.332 165.603C119.951 166.455 121.38 169.266 120.533 171.891C119.683 174.517 116.872 175.952 114.259 175.1C114.172 175.07 114.1 175.037 114.02 175.01C113.984 175.079 113.957 175.147 113.921 175.216C114.002 175.255 114.077 175.291 114.151 175.33C116.535 176.714 117.35 179.761 115.977 182.15C114.602 184.539 111.556 185.358 109.172 183.98C109.097 183.935 109.022 183.884 108.948 183.83C108.909 183.893 108.861 183.956 108.817 184.019C108.885 184.07 108.96 184.123 109.022 184.183C111.066 186.025 111.23 189.179 109.392 191.234C107.549 193.279 104.401 193.446 102.357 191.598C102.289 191.541 102.232 191.479 102.175 191.422C102.118 191.467 102.056 191.518 101.999 191.571C102.056 191.634 102.112 191.703 102.163 191.772C103.783 194.002 103.288 197.124 101.062 198.747C98.8365 200.365 95.7217 199.875 94.1076 197.644C94.0568 197.569 94.0091 197.495 93.9644 197.42C93.8957 197.459 93.8331 197.495 93.7645 197.533C93.8032 197.614 93.851 197.689 93.8838 197.767C95.0026 200.281 93.8719 203.238 91.3627 204.36C88.8475 205.481 85.9027 204.348 84.7839 201.827C84.7481 201.746 84.7212 201.669 84.6914 201.594C84.6168 201.615 84.5482 201.639 84.4766 201.663C84.5005 201.749 84.5213 201.827 84.5392 201.908C85.1091 204.608 83.3936 207.254 80.7054 207.831C78.0142 208.402 75.3648 206.683 74.7949 203.983C74.777 203.896 74.7651 203.812 74.7561 203.732C74.6815 203.738 74.6069 203.75 74.5264 203.762C74.5323 203.842 74.5443 203.929 74.5443 204.013C74.5443 206.766 72.3156 209.003 69.5647 209.003V101.588C72.3126 101.588 74.5443 103.824 74.5443 106.578C74.5443 106.665 74.5383 106.748 74.5323 106.829C74.6069 106.841 74.6815 106.853 74.7561 106.856C74.774 106.775 74.78 106.692 74.7949 106.605C75.3707 103.905 78.0112 102.186 80.7054 102.757C83.3995 103.334 85.1151 105.98 84.5392 108.68C84.5213 108.767 84.5005 108.847 84.4766 108.925C84.5512 108.949 84.6198 108.976 84.6914 109C84.7212 108.919 84.7481 108.838 84.7839 108.761C85.9027 106.246 88.8445 105.107 91.3627 106.228C93.8719 107.355 95.0026 110.304 93.8838 112.821C93.851 112.902 93.8032 112.983 93.7645 113.054C93.8331 113.093 93.8957 113.129 93.9644 113.168C94.0091 113.093 94.0568 113.018 94.1076 112.95C95.7217 110.719 98.8365 110.223 101.068 111.84C103.291 113.464 103.783 116.586 102.163 118.816C102.112 118.885 102.056 118.954 101.999 119.022C102.056 119.073 102.118 119.121 102.175 119.172C102.232 119.109 102.289 119.046 102.357 118.989C104.398 117.142 107.549 117.309 109.392 119.354C111.227 121.405 111.069 124.563 109.022 126.405C108.96 126.467 108.885 126.518 108.823 126.569C108.861 126.632 108.909 126.695 108.954 126.757C109.022 126.707 109.097 126.656 109.172 126.614C111.556 125.236 114.602 126.055 115.977 128.438C117.353 130.827 116.535 133.88 114.151 135.258C114.077 135.297 114.002 135.333 113.927 135.372C113.957 135.44 113.99 135.509 114.02 135.584C114.1 135.548 114.172 135.515 114.259 135.491C116.872 134.639 119.683 136.074 120.533 138.693C121.383 141.319 119.951 144.138 117.332 144.981C117.251 145.008 117.171 145.026 117.093 145.05C117.105 145.125 117.129 145.2 117.144 145.274C117.224 145.262 117.305 145.245 117.382 145.236C120.121 144.949 122.574 146.94 122.86 149.679C123.147 152.423 121.166 154.881 118.427 155.168C118.343 155.174 118.254 155.174 118.17 155.18C118.17 155.219 118.176 155.255 118.176 155.294C118.176 155.333 118.17 155.369 118.17 155.408C118.254 155.413 118.343 155.413 118.427 155.419C121.163 155.712 123.147 158.17 122.86 160.909Z" fill="#962496"/>
<path d="M112.4 155.294C112.4 179.001 93.2216 198.212 69.5678 198.212C45.9111 198.212 26.7327 179.001 26.7327 155.294C26.7327 131.58 45.9111 112.367 69.5678 112.367C93.2186 112.367 112.4 131.58 112.4 155.294Z" fill="#81007F"/>
</g>
<defs>
<clipPath id="clip0">
<rect width="160" height="209" fill="white"/>
</clipPath>
</defs>
</svg>
